<?xml version="1.0" encoding="UTF-8" standalone="no"?>
<svg
   version="1.2"
   viewBox="0 0 77.580917 77.538261"
   width="77.580917"
   height="77.538261"
   id="svg1"
   xml:space="preserve"
   xmlns="http://www.w3.org/2000/svg"
   xmlns:svg="http://www.w3.org/2000/svg"><title
     id="title1">Logo drone copy</title><defs
     id="defs1" /><style
     id="style1" /><g
     id="g41"
     transform="translate(-421.11457,-227.3297)"
     style="display:inline"><path
       style="display:inline;fill:#000000;stroke-width:0.387679"
       d="m 424.46792,250.32208 c -4.85425,10.94775 -4.60482,23.97873 1.84147,35.14404 0.47261,0.81858 0.97451,1.60992 1.49621,2.3806 l 21.66386,-37.52464 z"
       id="path37" /><path
       style="display:inline;fill:#000000;stroke-width:0.387679"
       d="m 441.04878,267.23232 -12.49811,21.65023 c 7.28735,10.03984 18.70756,15.71331 30.52142,15.97815 1.20971,0.0271 2.42394,-0.0242 3.63752,-0.11131 l -12.56777,-21.76835 z"
       id="path40" /><path
       style="display:inline;fill:#000000;stroke-width:0.387679"
       d="m 494.80902,282.98104 -43.32393,7.6e-4 12.51023,21.6684 c 5.23878,-0.55248 10.44933,-2.17993 15.30576,-4.9838 6.37803,-3.68236 11.31609,-8.90204 14.6137,-14.92112 0.3173,-0.57919 0.60746,-1.17091 0.89424,-1.76424 z"
       id="path41" /><path
       style="display:inline;fill:#000000;stroke-width:0.387679"
       d="m 492.00364,244.29488 -12.57081,21.77516 -9.0938,15.74872 25.0038,-0.002 c 4.85362,-10.94761 4.60376,-23.97926 -1.84223,-35.14405 -0.47233,-0.815 -0.97246,-1.60737 -1.49696,-2.37832 z"
       id="path34" /><path
       style="display:inline;fill:#000000;stroke-width:0.387679"
       d="m 459.63544,227.33087 c -0.83441,0.006 -1.67232,0.0404 -2.51235,0.10146 l 12.54582,21.72671 9.09306,15.74796 12.4913,-21.63735 c -7.3406,-10.06292 -19.1018,-16.03609 -31.61783,-15.93878 z"
       id="path6" /><path
       style="display:inline;fill:#ff6600;stroke-width:0.387679"
       d="m 455.83133,227.5179 c -5.39787,0.56223 -10.61864,2.25072 -15.32318,4.95654 -6.37803,3.68236 -11.31467,8.90283 -14.61218,14.92187 -0.31703,0.57869 -0.60768,1.16993 -0.89423,1.76273 h 25.13934 18.18459 z"
       id="path33" /></g></svg>
